<mxfile host="app.diagrams.net" agent="Mozilla/5.0 (Windows NT 10.0; Win64; x64) AppleWebKit/537.36 (KHTML, like Gecko) Chrome/140.0.0.0 Safari/537.36" version="28.2.8">
  <diagram name="第 1 页" id="8QMwcps_5zftQ4atoRnA">
    <mxGraphModel dx="1426" dy="743" grid="1" gridSize="10" guides="1" tooltips="1" connect="1" arrows="1" fold="1" page="1" pageScale="1" pageWidth="827" pageHeight="1169" math="0" shadow="0">
      <root>
        <mxCell id="0" />
        <mxCell id="1" parent="0" />
        <mxCell id="gF-SpmbbT1mS5ckHaSBA-1" value="&lt;font style=&quot;font-size: 12px;&quot;&gt;«Module»&lt;/font&gt;&lt;br style=&quot;font-size: 14px;&quot;&gt;&lt;b&gt;网表分割&lt;/b&gt;" style="html=1;dropTarget=0;fontSize=14;fillColor=#ffcccc;strokeColor=#36393d;gradientColor=#FFFFFF;gradientDirection=east;verticalAlign=top;" vertex="1" parent="1">
          <mxGeometry x="770" y="720" width="490" height="440" as="geometry" />
        </mxCell>
        <mxCell id="gF-SpmbbT1mS5ckHaSBA-2" value="" style="shape=module;jettyWidth=8;jettyHeight=4;fontSize=14;fillColor=#ffcccc;strokeColor=#36393d;gradientColor=#FFFFFF;gradientDirection=east;" vertex="1" parent="gF-SpmbbT1mS5ckHaSBA-1">
          <mxGeometry x="1" width="20" height="20" relative="1" as="geometry">
            <mxPoint x="-27" y="7" as="offset" />
          </mxGeometry>
        </mxCell>
        <mxCell id="gF-SpmbbT1mS5ckHaSBA-3" value="&lt;font style=&quot;font-size: 12px;&quot;&gt;«SubModule»&lt;/font&gt;&lt;br style=&quot;font-size: 14px;&quot;&gt;&lt;b&gt;单层分割&lt;/b&gt;" style="html=1;dropTarget=0;fontSize=14;fillColor=#ffcccc;strokeColor=#36393d;gradientColor=#FFFFFF;gradientDirection=east;verticalAlign=top;" vertex="1" parent="1">
          <mxGeometry x="780" y="910" width="310" height="240" as="geometry" />
        </mxCell>
        <mxCell id="gF-SpmbbT1mS5ckHaSBA-4" value="" style="shape=module;jettyWidth=8;jettyHeight=4;fontSize=14;fillColor=#ffcccc;strokeColor=#36393d;gradientColor=#FFFFFF;gradientDirection=east;" vertex="1" parent="gF-SpmbbT1mS5ckHaSBA-3">
          <mxGeometry x="1" width="20" height="20" relative="1" as="geometry">
            <mxPoint x="-27" y="7" as="offset" />
          </mxGeometry>
        </mxCell>
        <mxCell id="gF-SpmbbT1mS5ckHaSBA-5" value="&lt;font style=&quot;font-size: 12px;&quot;&gt;«SubModule»&lt;/font&gt;&lt;br style=&quot;font-size: 14px;&quot;&gt;&lt;b&gt;图映射&lt;/b&gt;" style="html=1;dropTarget=0;fontSize=14;fillColor=#ffcccc;strokeColor=#36393d;gradientColor=#FFFFFF;gradientDirection=east;verticalAlign=top;" vertex="1" parent="1">
          <mxGeometry x="795" y="951" width="280" height="119" as="geometry" />
        </mxCell>
        <mxCell id="gF-SpmbbT1mS5ckHaSBA-6" value="" style="shape=module;jettyWidth=8;jettyHeight=4;fontSize=14;fillColor=#ffcccc;strokeColor=#36393d;gradientColor=#FFFFFF;gradientDirection=east;" vertex="1" parent="gF-SpmbbT1mS5ckHaSBA-5">
          <mxGeometry x="1" width="20" height="20" relative="1" as="geometry">
            <mxPoint x="-27" y="7" as="offset" />
          </mxGeometry>
        </mxCell>
        <mxCell id="gF-SpmbbT1mS5ckHaSBA-7" value="&lt;font style=&quot;font-size: 12px;&quot;&gt;«FuncUnit»&lt;/font&gt;&lt;br style=&quot;font-size: 14px;&quot;&gt;&lt;b&gt;超图映射&lt;/b&gt;" style="html=1;dropTarget=0;fontSize=14;fillColor=#E6D0DE;strokeColor=#36393d;gradientColor=#FFFFFF;gradientDirection=east;" vertex="1" parent="1">
          <mxGeometry x="814" y="1000" width="110" height="50" as="geometry" />
        </mxCell>
        <mxCell id="gF-SpmbbT1mS5ckHaSBA-8" value="" style="shape=module;jettyWidth=8;jettyHeight=4;fontSize=14;fillColor=#ffcccc;strokeColor=#36393d;gradientColor=#FFFFFF;gradientDirection=east;" vertex="1" parent="gF-SpmbbT1mS5ckHaSBA-7">
          <mxGeometry x="1" width="20" height="20" relative="1" as="geometry">
            <mxPoint x="-27" y="7" as="offset" />
          </mxGeometry>
        </mxCell>
        <mxCell id="gF-SpmbbT1mS5ckHaSBA-9" style="edgeStyle=none;rounded=1;orthogonalLoop=1;jettySize=auto;html=1;dashed=1;strokeColor=#000000;fontSize=14;fontColor=#000000;endArrow=open;endFill=0;elbow=vertical;" edge="1" parent="1" source="gF-SpmbbT1mS5ckHaSBA-11" target="gF-SpmbbT1mS5ckHaSBA-18">
          <mxGeometry relative="1" as="geometry" />
        </mxCell>
        <mxCell id="gF-SpmbbT1mS5ckHaSBA-10" style="edgeStyle=none;rounded=1;orthogonalLoop=1;jettySize=auto;html=1;dashed=1;strokeColor=#000000;fontSize=14;fontColor=#000000;endArrow=open;endFill=0;elbow=vertical;" edge="1" parent="1" source="gF-SpmbbT1mS5ckHaSBA-11" target="gF-SpmbbT1mS5ckHaSBA-7">
          <mxGeometry relative="1" as="geometry" />
        </mxCell>
        <mxCell id="gF-SpmbbT1mS5ckHaSBA-11" value="&lt;font style=&quot;font-size: 12px;&quot;&gt;«FuncUnit»&lt;/font&gt;&lt;br style=&quot;font-size: 14px;&quot;&gt;&lt;b&gt;结果映射&lt;/b&gt;" style="html=1;dropTarget=0;fontSize=14;fillColor=#E6D0DE;strokeColor=#36393d;gradientColor=#FFFFFF;gradientDirection=east;" vertex="1" parent="1">
          <mxGeometry x="946" y="1001" width="110" height="50" as="geometry" />
        </mxCell>
        <mxCell id="gF-SpmbbT1mS5ckHaSBA-12" value="" style="shape=module;jettyWidth=8;jettyHeight=4;fontSize=14;fillColor=#ffcccc;strokeColor=#36393d;gradientColor=#FFFFFF;gradientDirection=east;" vertex="1" parent="gF-SpmbbT1mS5ckHaSBA-11">
          <mxGeometry x="1" width="20" height="20" relative="1" as="geometry">
            <mxPoint x="-27" y="7" as="offset" />
          </mxGeometry>
        </mxCell>
        <mxCell id="gF-SpmbbT1mS5ckHaSBA-13" value="&lt;font style=&quot;font-size: 12px;&quot;&gt;«Module»&lt;/font&gt;&lt;br style=&quot;font-size: 14px;&quot;&gt;&lt;b&gt;硬件拓扑&lt;/b&gt;" style="html=1;dropTarget=0;fontSize=14;fillColor=#ffcccc;strokeColor=#36393d;gradientColor=#FFFFFF;gradientDirection=east;" vertex="1" parent="1">
          <mxGeometry x="1380" y="970" width="110" height="50" as="geometry" />
        </mxCell>
        <mxCell id="gF-SpmbbT1mS5ckHaSBA-14" value="" style="shape=module;jettyWidth=8;jettyHeight=4;fontSize=14;fillColor=#ffcccc;strokeColor=#36393d;gradientColor=#FFFFFF;gradientDirection=east;" vertex="1" parent="gF-SpmbbT1mS5ckHaSBA-13">
          <mxGeometry x="1" width="20" height="20" relative="1" as="geometry">
            <mxPoint x="-27" y="7" as="offset" />
          </mxGeometry>
        </mxCell>
        <mxCell id="gF-SpmbbT1mS5ckHaSBA-15" value="&lt;font style=&quot;font-size: 12px;&quot;&gt;«Module»&lt;/font&gt;&lt;br style=&quot;font-size: 14px;&quot;&gt;&lt;b&gt;配置解析&lt;/b&gt;" style="html=1;dropTarget=0;fontSize=14;fillColor=#ffcccc;strokeColor=#36393d;gradientColor=#FFFFFF;gradientDirection=east;verticalAlign=top;" vertex="1" parent="1">
          <mxGeometry x="850" y="270" width="430" height="269" as="geometry" />
        </mxCell>
        <mxCell id="gF-SpmbbT1mS5ckHaSBA-16" value="" style="shape=module;jettyWidth=8;jettyHeight=4;fontSize=14;fillColor=#ffcccc;strokeColor=#36393d;gradientColor=#FFFFFF;gradientDirection=east;" vertex="1" parent="gF-SpmbbT1mS5ckHaSBA-15">
          <mxGeometry x="1" width="20" height="20" relative="1" as="geometry">
            <mxPoint x="-27" y="7" as="offset" />
          </mxGeometry>
        </mxCell>
        <mxCell id="gF-SpmbbT1mS5ckHaSBA-17" style="edgeStyle=none;rounded=1;orthogonalLoop=1;jettySize=auto;html=1;dashed=1;strokeColor=#000000;fontSize=14;fontColor=#000000;endArrow=open;endFill=0;elbow=vertical;" edge="1" parent="1" source="gF-SpmbbT1mS5ckHaSBA-18" target="gF-SpmbbT1mS5ckHaSBA-7">
          <mxGeometry relative="1" as="geometry" />
        </mxCell>
        <mxCell id="gF-SpmbbT1mS5ckHaSBA-18" value="&lt;font style=&quot;font-size: 12px;&quot;&gt;«SubModule»&lt;/font&gt;&lt;br style=&quot;font-size: 14px;&quot;&gt;&lt;b&gt;分割算法&lt;/b&gt;" style="html=1;dropTarget=0;fontSize=14;fillColor=#ffcccc;strokeColor=#36393d;gradientColor=#FFFFFF;gradientDirection=east;" vertex="1" parent="1">
          <mxGeometry x="814" y="1091" width="110" height="50" as="geometry" />
        </mxCell>
        <mxCell id="gF-SpmbbT1mS5ckHaSBA-19" value="" style="shape=module;jettyWidth=8;jettyHeight=4;fontSize=14;fillColor=#ffcccc;strokeColor=#36393d;gradientColor=#FFFFFF;gradientDirection=east;" vertex="1" parent="gF-SpmbbT1mS5ckHaSBA-18">
          <mxGeometry x="1" width="20" height="20" relative="1" as="geometry">
            <mxPoint x="-27" y="7" as="offset" />
          </mxGeometry>
        </mxCell>
        <mxCell id="gF-SpmbbT1mS5ckHaSBA-20" value="&lt;font style=&quot;font-size: 12px;&quot;&gt;«Componenet»&lt;/font&gt;&lt;br style=&quot;font-size: 14px;&quot;&gt;&lt;b&gt;Kahypar&lt;/b&gt;" style="html=1;dropTarget=0;fontSize=14;fillColor=#CCCCCC;strokeColor=#36393d;gradientColor=#FFFFFF;gradientDirection=east;" vertex="1" parent="1">
          <mxGeometry x="770" y="1200" width="110" height="50" as="geometry" />
        </mxCell>
        <mxCell id="gF-SpmbbT1mS5ckHaSBA-21" value="" style="shape=module;jettyWidth=8;jettyHeight=4;fontSize=14;fillColor=#CCCCCC;strokeColor=#36393d;gradientColor=#FFFFFF;gradientDirection=east;" vertex="1" parent="gF-SpmbbT1mS5ckHaSBA-20">
          <mxGeometry x="1" width="20" height="20" relative="1" as="geometry">
            <mxPoint x="-27" y="7" as="offset" />
          </mxGeometry>
        </mxCell>
        <mxCell id="gF-SpmbbT1mS5ckHaSBA-22" value="&lt;span style=&quot;font-size: 12px;&quot;&gt;«Componenet》&lt;/span&gt;&lt;br style=&quot;font-size: 14px;&quot;&gt;&lt;b&gt;hMetis&lt;/b&gt;" style="html=1;dropTarget=0;fontSize=14;fillColor=#CCCCCC;strokeColor=#36393d;gradientColor=#FFFFFF;gradientDirection=east;" vertex="1" parent="1">
          <mxGeometry x="946" y="1200" width="110" height="50" as="geometry" />
        </mxCell>
        <mxCell id="gF-SpmbbT1mS5ckHaSBA-23" value="" style="shape=module;jettyWidth=8;jettyHeight=4;fontSize=14;fillColor=#CCCCCC;strokeColor=#36393d;gradientColor=#FFFFFF;gradientDirection=east;" vertex="1" parent="gF-SpmbbT1mS5ckHaSBA-22">
          <mxGeometry x="1" width="20" height="20" relative="1" as="geometry">
            <mxPoint x="-27" y="7" as="offset" />
          </mxGeometry>
        </mxCell>
        <mxCell id="gF-SpmbbT1mS5ckHaSBA-24" style="edgeStyle=none;rounded=1;orthogonalLoop=1;jettySize=auto;html=1;dashed=1;strokeColor=#000000;fontSize=14;fontColor=#000000;endArrow=open;endFill=0;elbow=vertical;" edge="1" parent="1" source="gF-SpmbbT1mS5ckHaSBA-25" target="gF-SpmbbT1mS5ckHaSBA-11">
          <mxGeometry relative="1" as="geometry" />
        </mxCell>
        <mxCell id="gF-SpmbbT1mS5ckHaSBA-25" value="&lt;font style=&quot;font-size: 12px;&quot;&gt;«SubModule»&lt;/font&gt;&lt;br style=&quot;font-size: 14px;&quot;&gt;&lt;b&gt;结果验证&lt;/b&gt;" style="html=1;dropTarget=0;fontSize=14;fillColor=#ffcccc;strokeColor=#36393d;gradientColor=#FFFFFF;gradientDirection=east;" vertex="1" parent="1">
          <mxGeometry x="946" y="1091" width="110" height="50" as="geometry" />
        </mxCell>
        <mxCell id="gF-SpmbbT1mS5ckHaSBA-26" value="" style="shape=module;jettyWidth=8;jettyHeight=4;fontSize=14;fillColor=#ffcccc;strokeColor=#36393d;gradientColor=#FFFFFF;gradientDirection=east;" vertex="1" parent="gF-SpmbbT1mS5ckHaSBA-25">
          <mxGeometry x="1" width="20" height="20" relative="1" as="geometry">
            <mxPoint x="-27" y="7" as="offset" />
          </mxGeometry>
        </mxCell>
        <mxCell id="gF-SpmbbT1mS5ckHaSBA-27" style="edgeStyle=none;rounded=1;orthogonalLoop=1;jettySize=auto;html=1;dashed=1;strokeColor=#000000;fontSize=14;fontColor=#000000;endArrow=open;endFill=0;elbow=vertical;" edge="1" parent="1" source="gF-SpmbbT1mS5ckHaSBA-29" target="gF-SpmbbT1mS5ckHaSBA-3">
          <mxGeometry relative="1" as="geometry" />
        </mxCell>
        <mxCell id="gF-SpmbbT1mS5ckHaSBA-28" style="edgeStyle=none;rounded=1;orthogonalLoop=1;jettySize=auto;html=1;dashed=1;strokeColor=#000000;fontSize=14;fontColor=#000000;endArrow=open;endFill=0;elbow=vertical;" edge="1" parent="1" source="gF-SpmbbT1mS5ckHaSBA-29" target="gF-SpmbbT1mS5ckHaSBA-13">
          <mxGeometry relative="1" as="geometry">
            <mxPoint x="1270" y="729.4444444444446" as="targetPoint" />
          </mxGeometry>
        </mxCell>
        <mxCell id="gF-SpmbbT1mS5ckHaSBA-29" value="&lt;font style=&quot;font-size: 12px;&quot;&gt;«SubModule»&lt;/font&gt;&lt;br style=&quot;font-size: 14px;&quot;&gt;&lt;b&gt;多层分割&lt;/b&gt;" style="html=1;dropTarget=0;fontSize=14;fillColor=#ffcccc;strokeColor=#36393d;gradientColor=#FFFFFF;gradientDirection=east;verticalAlign=top;" vertex="1" parent="1">
          <mxGeometry x="880" y="770" width="280" height="110" as="geometry" />
        </mxCell>
        <mxCell id="gF-SpmbbT1mS5ckHaSBA-30" value="" style="shape=module;jettyWidth=8;jettyHeight=4;fontSize=14;fillColor=#ffcccc;strokeColor=#36393d;gradientColor=#FFFFFF;gradientDirection=east;" vertex="1" parent="gF-SpmbbT1mS5ckHaSBA-29">
          <mxGeometry x="1" width="20" height="20" relative="1" as="geometry">
            <mxPoint x="-27" y="7" as="offset" />
          </mxGeometry>
        </mxCell>
        <mxCell id="gF-SpmbbT1mS5ckHaSBA-31" value="&lt;font style=&quot;font-size: 12px;&quot;&gt;«FuncUnit»&lt;/font&gt;&lt;br style=&quot;font-size: 14px;&quot;&gt;&lt;b&gt;并行分割&lt;/b&gt;" style="html=1;dropTarget=0;fontSize=14;fillColor=#E6D0DE;strokeColor=#36393d;gradientColor=#FFFFFF;gradientDirection=east;" vertex="1" parent="1">
          <mxGeometry x="1031" y="820" width="110" height="50" as="geometry" />
        </mxCell>
        <mxCell id="gF-SpmbbT1mS5ckHaSBA-32" value="" style="shape=module;jettyWidth=8;jettyHeight=4;fontSize=14;fillColor=#ffcccc;strokeColor=#36393d;gradientColor=#FFFFFF;gradientDirection=east;" vertex="1" parent="gF-SpmbbT1mS5ckHaSBA-31">
          <mxGeometry x="1" width="20" height="20" relative="1" as="geometry">
            <mxPoint x="-27" y="7" as="offset" />
          </mxGeometry>
        </mxCell>
        <mxCell id="gF-SpmbbT1mS5ckHaSBA-33" value="&lt;font style=&quot;font-size: 12px;&quot;&gt;«FuncUnit»&lt;/font&gt;&lt;br style=&quot;font-size: 14px;&quot;&gt;&lt;b&gt;串行分割&lt;/b&gt;" style="html=1;dropTarget=0;fontSize=14;fillColor=#E6D0DE;strokeColor=#36393d;gradientColor=#FFFFFF;gradientDirection=east;" vertex="1" parent="1">
          <mxGeometry x="899" y="820" width="110" height="50" as="geometry" />
        </mxCell>
        <mxCell id="gF-SpmbbT1mS5ckHaSBA-34" value="" style="shape=module;jettyWidth=8;jettyHeight=4;fontSize=14;fillColor=#ffcccc;strokeColor=#36393d;gradientColor=#FFFFFF;gradientDirection=east;" vertex="1" parent="gF-SpmbbT1mS5ckHaSBA-33">
          <mxGeometry x="1" width="20" height="20" relative="1" as="geometry">
            <mxPoint x="-27" y="7" as="offset" />
          </mxGeometry>
        </mxCell>
        <mxCell id="gF-SpmbbT1mS5ckHaSBA-35" style="edgeStyle=none;rounded=1;orthogonalLoop=1;jettySize=auto;html=1;dashed=1;strokeColor=#000000;fontSize=14;fontColor=#000000;endArrow=open;endFill=0;elbow=vertical;" edge="1" parent="1" source="gF-SpmbbT1mS5ckHaSBA-36" target="gF-SpmbbT1mS5ckHaSBA-1">
          <mxGeometry relative="1" as="geometry" />
        </mxCell>
        <mxCell id="gF-SpmbbT1mS5ckHaSBA-36" value="&lt;font style=&quot;font-size: 12px;&quot;&gt;«Module»&lt;/font&gt;&lt;br style=&quot;font-size: 14px;&quot;&gt;&lt;b&gt;分区布局&lt;/b&gt;" style="html=1;dropTarget=0;fontSize=14;fillColor=#ffcccc;strokeColor=#36393d;gradientColor=#FFFFFF;gradientDirection=east;verticalAlign=top;" vertex="1" parent="1">
          <mxGeometry x="1370" y="800" width="130" height="110" as="geometry" />
        </mxCell>
        <mxCell id="gF-SpmbbT1mS5ckHaSBA-37" value="" style="shape=module;jettyWidth=8;jettyHeight=4;fontSize=14;fillColor=#ffcccc;strokeColor=#36393d;gradientColor=#FFFFFF;gradientDirection=east;" vertex="1" parent="gF-SpmbbT1mS5ckHaSBA-36">
          <mxGeometry x="1" width="20" height="20" relative="1" as="geometry">
            <mxPoint x="-27" y="7" as="offset" />
          </mxGeometry>
        </mxCell>
        <mxCell id="gF-SpmbbT1mS5ckHaSBA-38" style="edgeStyle=none;rounded=1;orthogonalLoop=1;jettySize=auto;html=1;dashed=1;strokeColor=#000000;fontSize=14;fontColor=#000000;endArrow=open;endFill=0;elbow=vertical;" edge="1" parent="1" source="gF-SpmbbT1mS5ckHaSBA-36" target="gF-SpmbbT1mS5ckHaSBA-13">
          <mxGeometry relative="1" as="geometry" />
        </mxCell>
        <mxCell id="gF-SpmbbT1mS5ckHaSBA-39" value="&lt;font style=&quot;font-size: 12px;&quot;&gt;«SubModule»&lt;/font&gt;&lt;br style=&quot;font-size: 14px;&quot;&gt;&lt;b&gt;布局算法&lt;/b&gt;" style="html=1;dropTarget=0;fontSize=14;fillColor=#ffcccc;strokeColor=#36393d;gradientColor=#FFFFFF;gradientDirection=east;" vertex="1" parent="1">
          <mxGeometry x="1380" y="850" width="110" height="50" as="geometry" />
        </mxCell>
        <mxCell id="gF-SpmbbT1mS5ckHaSBA-40" value="" style="shape=module;jettyWidth=8;jettyHeight=4;fontSize=14;fillColor=#ffcccc;strokeColor=#36393d;gradientColor=#FFFFFF;gradientDirection=east;" vertex="1" parent="gF-SpmbbT1mS5ckHaSBA-39">
          <mxGeometry x="1" width="20" height="20" relative="1" as="geometry">
            <mxPoint x="-27" y="7" as="offset" />
          </mxGeometry>
        </mxCell>
        <mxCell id="gF-SpmbbT1mS5ckHaSBA-41" value="&amp;lt;&amp;lt;Realization&amp;gt;&amp;gt;" style="endArrow=block;dashed=1;endFill=0;endSize=12;html=1;rounded=0;fontSize=12;strokeColor=#0000FF;fontColor=#0000FF;" edge="1" parent="1" source="gF-SpmbbT1mS5ckHaSBA-20" target="gF-SpmbbT1mS5ckHaSBA-18">
          <mxGeometry width="160" relative="1" as="geometry">
            <mxPoint x="140" y="1040" as="sourcePoint" />
            <mxPoint x="140" y="1200" as="targetPoint" />
          </mxGeometry>
        </mxCell>
        <mxCell id="gF-SpmbbT1mS5ckHaSBA-42" value="&amp;lt;&amp;lt;Realization&amp;gt;&amp;gt;" style="endArrow=block;dashed=1;endFill=0;endSize=12;html=1;rounded=0;fontSize=12;strokeColor=#0000FF;fontColor=#0000FF;" edge="1" parent="1" source="gF-SpmbbT1mS5ckHaSBA-22" target="gF-SpmbbT1mS5ckHaSBA-18">
          <mxGeometry width="160" relative="1" as="geometry">
            <mxPoint x="845.0917431192661" y="1210" as="sourcePoint" />
            <mxPoint x="868.9082568807339" y="1151" as="targetPoint" />
          </mxGeometry>
        </mxCell>
        <mxCell id="gF-SpmbbT1mS5ckHaSBA-43" style="edgeStyle=none;rounded=1;orthogonalLoop=1;jettySize=auto;html=1;dashed=1;strokeColor=#000000;fontSize=14;fontColor=#000000;endArrow=open;endFill=0;elbow=vertical;" edge="1" parent="1" source="gF-SpmbbT1mS5ckHaSBA-5">
          <mxGeometry relative="1" as="geometry">
            <mxPoint x="1120" y="1009.0199999999995" as="targetPoint" />
          </mxGeometry>
        </mxCell>
        <mxCell id="gF-SpmbbT1mS5ckHaSBA-44" value="" style="group;fontSize=14;verticalAlign=middle;fillColor=#E6D0DE;strokeColor=#36393d;gradientColor=#FFFFFF;gradientDirection=east;" vertex="1" connectable="0" parent="1">
          <mxGeometry x="1120" y="951" width="130" height="120" as="geometry" />
        </mxCell>
        <mxCell id="gF-SpmbbT1mS5ckHaSBA-45" value="&lt;font style=&quot;font-size: 12px;&quot;&gt;«FuncUnit»&lt;/font&gt;&lt;br style=&quot;font-size: 14px;&quot;&gt;&lt;b&gt;分区&lt;/b&gt;" style="html=1;dropTarget=0;fontSize=14;fillColor=#E6D0DE;strokeColor=#36393d;gradientColor=#FFFFFF;gradientDirection=east;verticalAlign=top;" vertex="1" parent="gF-SpmbbT1mS5ckHaSBA-44">
          <mxGeometry width="130" height="120" as="geometry" />
        </mxCell>
        <mxCell id="gF-SpmbbT1mS5ckHaSBA-46" value="" style="shape=module;jettyWidth=8;jettyHeight=4;fontSize=14;fillColor=#ffcccc;strokeColor=#36393d;gradientColor=#FFFFFF;gradientDirection=east;" vertex="1" parent="gF-SpmbbT1mS5ckHaSBA-45">
          <mxGeometry x="1" width="20" height="20" relative="1" as="geometry">
            <mxPoint x="-27" y="7" as="offset" />
          </mxGeometry>
        </mxCell>
        <mxCell id="gF-SpmbbT1mS5ckHaSBA-47" value="拓扑层次" style="text;html=1;strokeColor=none;fillColor=none;align=center;verticalAlign=middle;whiteSpace=wrap;rounded=0;glass=0;fillStyle=auto;strokeWidth=1;fontSize=14;fontColor=#000000;opacity=30;" vertex="1" parent="gF-SpmbbT1mS5ckHaSBA-44">
          <mxGeometry x="35" y="67" width="60" height="20" as="geometry" />
        </mxCell>
        <mxCell id="gF-SpmbbT1mS5ckHaSBA-48" value="调度状态" style="text;html=1;strokeColor=none;fillColor=none;align=center;verticalAlign=middle;whiteSpace=wrap;rounded=0;glass=0;fillStyle=auto;strokeWidth=1;fontSize=14;fontColor=#000000;opacity=30;" vertex="1" parent="gF-SpmbbT1mS5ckHaSBA-44">
          <mxGeometry x="35" y="92.5" width="60" height="20" as="geometry" />
        </mxCell>
        <mxCell id="gF-SpmbbT1mS5ckHaSBA-49" value="节点容器" style="text;html=1;strokeColor=none;fillColor=none;align=center;verticalAlign=middle;whiteSpace=wrap;rounded=0;glass=0;fillStyle=auto;strokeWidth=1;fontSize=14;fontColor=#000000;opacity=30;" vertex="1" parent="gF-SpmbbT1mS5ckHaSBA-44">
          <mxGeometry x="35" y="41" width="60" height="20" as="geometry" />
        </mxCell>
        <mxCell id="gF-SpmbbT1mS5ckHaSBA-50" value="&lt;font style=&quot;font-size: 12px;&quot;&gt;«FuncUnit»&lt;/font&gt;&lt;br style=&quot;font-size: 14px;&quot;&gt;&lt;b&gt;编译选项&lt;/b&gt;" style="html=1;dropTarget=0;fontSize=14;fillColor=#E6D0DE;strokeColor=#36393d;gradientColor=#FFFFFF;gradientDirection=east;verticalAlign=middle;" vertex="1" parent="1">
          <mxGeometry x="1155" y="330" width="110" height="50" as="geometry" />
        </mxCell>
        <mxCell id="gF-SpmbbT1mS5ckHaSBA-51" value="" style="shape=module;jettyWidth=8;jettyHeight=4;fontSize=14;fillColor=#ffcccc;strokeColor=#36393d;gradientColor=#FFFFFF;gradientDirection=east;" vertex="1" parent="gF-SpmbbT1mS5ckHaSBA-50">
          <mxGeometry x="1" width="20" height="20" relative="1" as="geometry">
            <mxPoint x="-27" y="7" as="offset" />
          </mxGeometry>
        </mxCell>
        <mxCell id="gF-SpmbbT1mS5ckHaSBA-52" value="&lt;font style=&quot;font-size: 12px;&quot;&gt;«FuncUnit»&lt;/font&gt;&lt;br style=&quot;font-size: 14px;&quot;&gt;&lt;b&gt;默认配置&lt;/b&gt;" style="html=1;dropTarget=0;fontSize=14;fillColor=#E6D0DE;strokeColor=#36393d;gradientColor=#FFFFFF;gradientDirection=east;" vertex="1" parent="1">
          <mxGeometry x="1155" y="465" width="110" height="50" as="geometry" />
        </mxCell>
        <mxCell id="gF-SpmbbT1mS5ckHaSBA-53" value="" style="shape=module;jettyWidth=8;jettyHeight=4;fontSize=14;fillColor=#ffcccc;strokeColor=#36393d;gradientColor=#FFFFFF;gradientDirection=east;" vertex="1" parent="gF-SpmbbT1mS5ckHaSBA-52">
          <mxGeometry x="1" width="20" height="20" relative="1" as="geometry">
            <mxPoint x="-27" y="7" as="offset" />
          </mxGeometry>
        </mxCell>
        <mxCell id="gF-SpmbbT1mS5ckHaSBA-54" value="&lt;font style=&quot;font-size: 12px;&quot;&gt;«SubModule»&lt;/font&gt;&lt;br style=&quot;font-size: 14px;&quot;&gt;&lt;b&gt;解析器&lt;/b&gt;" style="html=1;dropTarget=0;fontSize=14;fillColor=#ffcccc;strokeColor=#36393d;gradientColor=#FFFFFF;gradientDirection=east;verticalAlign=top;" vertex="1" parent="1">
          <mxGeometry x="860" y="327.75" width="260" height="201.25" as="geometry" />
        </mxCell>
        <mxCell id="gF-SpmbbT1mS5ckHaSBA-55" value="" style="shape=module;jettyWidth=8;jettyHeight=4;fontSize=14;fillColor=#ffcccc;strokeColor=#36393d;gradientColor=#FFFFFF;gradientDirection=east;" vertex="1" parent="gF-SpmbbT1mS5ckHaSBA-54">
          <mxGeometry x="1" width="20" height="20" relative="1" as="geometry">
            <mxPoint x="-27" y="7" as="offset" />
          </mxGeometry>
        </mxCell>
        <mxCell id="gF-SpmbbT1mS5ckHaSBA-56" value="&lt;font style=&quot;font-size: 12px;&quot;&gt;«FuncUnit»&lt;/font&gt;&lt;br style=&quot;font-size: 14px;&quot;&gt;&lt;b&gt;解析器工厂&lt;/b&gt;" style="html=1;dropTarget=0;fontSize=14;fillColor=#E6D0DE;strokeColor=#36393d;gradientColor=#FFFFFF;gradientDirection=east;" vertex="1" parent="1">
          <mxGeometry x="930" y="377.5" width="110" height="50" as="geometry" />
        </mxCell>
        <mxCell id="gF-SpmbbT1mS5ckHaSBA-57" value="" style="shape=module;jettyWidth=8;jettyHeight=4;fontSize=14;fillColor=#ffcccc;strokeColor=#36393d;gradientColor=#FFFFFF;gradientDirection=east;" vertex="1" parent="gF-SpmbbT1mS5ckHaSBA-56">
          <mxGeometry x="1" width="20" height="20" relative="1" as="geometry">
            <mxPoint x="-27" y="7" as="offset" />
          </mxGeometry>
        </mxCell>
        <mxCell id="gF-SpmbbT1mS5ckHaSBA-58" value="&lt;font style=&quot;font-size: 12px;&quot;&gt;«SubModule»&lt;/font&gt;&lt;br style=&quot;font-size: 14px;&quot;&gt;&lt;b&gt;JSON解析器&lt;/b&gt;" style="html=1;dropTarget=0;fontSize=14;fillColor=#E6D0DE;strokeColor=#36393d;gradientColor=#FFFFFF;gradientDirection=east;" vertex="1" parent="1">
          <mxGeometry x="870" y="464" width="110" height="50" as="geometry" />
        </mxCell>
        <mxCell id="gF-SpmbbT1mS5ckHaSBA-59" value="" style="shape=module;jettyWidth=8;jettyHeight=4;fontSize=14;fillColor=#ffcccc;strokeColor=#36393d;gradientColor=#FFFFFF;gradientDirection=east;" vertex="1" parent="gF-SpmbbT1mS5ckHaSBA-58">
          <mxGeometry x="1" width="20" height="20" relative="1" as="geometry">
            <mxPoint x="-27" y="7" as="offset" />
          </mxGeometry>
        </mxCell>
        <mxCell id="gF-SpmbbT1mS5ckHaSBA-60" style="edgeStyle=none;rounded=1;orthogonalLoop=1;jettySize=auto;html=1;dashed=1;strokeColor=#000000;fontSize=14;fontColor=#000000;endArrow=open;endFill=0;elbow=vertical;" edge="1" parent="1" source="gF-SpmbbT1mS5ckHaSBA-56" target="gF-SpmbbT1mS5ckHaSBA-58">
          <mxGeometry relative="1" as="geometry" />
        </mxCell>
        <mxCell id="gF-SpmbbT1mS5ckHaSBA-61" style="edgeStyle=none;rounded=1;orthogonalLoop=1;jettySize=auto;html=1;dashed=1;strokeColor=#000000;fontSize=14;fontColor=#000000;endArrow=open;endFill=0;elbow=vertical;" edge="1" parent="1" source="gF-SpmbbT1mS5ckHaSBA-56" target="gF-SpmbbT1mS5ckHaSBA-63">
          <mxGeometry relative="1" as="geometry" />
        </mxCell>
        <mxCell id="gF-SpmbbT1mS5ckHaSBA-62" style="edgeStyle=none;rounded=1;orthogonalLoop=1;jettySize=auto;html=1;dashed=1;strokeColor=#000000;fontSize=14;fontColor=#000000;endArrow=open;endFill=0;elbow=vertical;" edge="1" parent="1" source="gF-SpmbbT1mS5ckHaSBA-56" target="gF-SpmbbT1mS5ckHaSBA-50">
          <mxGeometry relative="1" as="geometry" />
        </mxCell>
        <mxCell id="gF-SpmbbT1mS5ckHaSBA-63" value="&lt;font style=&quot;font-size: 12px;&quot;&gt;«SubModule»&lt;/font&gt;&lt;br style=&quot;font-size: 14px;&quot;&gt;&lt;b&gt;XML解析器&lt;/b&gt;" style="html=1;dropTarget=0;fontSize=14;fillColor=#E6D0DE;strokeColor=#36393d;gradientColor=#FFFFFF;gradientDirection=east;" vertex="1" parent="1">
          <mxGeometry x="1000" y="464" width="110" height="50" as="geometry" />
        </mxCell>
        <mxCell id="gF-SpmbbT1mS5ckHaSBA-64" value="" style="shape=module;jettyWidth=8;jettyHeight=4;fontSize=14;fillColor=#ffcccc;strokeColor=#36393d;gradientColor=#FFFFFF;gradientDirection=east;" vertex="1" parent="gF-SpmbbT1mS5ckHaSBA-63">
          <mxGeometry x="1" width="20" height="20" relative="1" as="geometry">
            <mxPoint x="-27" y="7" as="offset" />
          </mxGeometry>
        </mxCell>
        <mxCell id="gF-SpmbbT1mS5ckHaSBA-65" value="&amp;lt;&amp;lt;Realization&amp;gt;&amp;gt;" style="endArrow=block;dashed=1;endFill=0;endSize=12;html=1;rounded=0;fontSize=12;strokeColor=#0000FF;fontColor=#0000FF;" edge="1" parent="1" source="gF-SpmbbT1mS5ckHaSBA-52" target="gF-SpmbbT1mS5ckHaSBA-50">
          <mxGeometry width="160" relative="1" as="geometry">
            <mxPoint x="1445.091743119266" y="680" as="sourcePoint" />
            <mxPoint x="1468.908256880734" y="621" as="targetPoint" />
          </mxGeometry>
        </mxCell>
        <mxCell id="gF-SpmbbT1mS5ckHaSBA-66" value="&lt;font style=&quot;font-size: 12px;&quot;&gt;«Module»&lt;/font&gt;&lt;br style=&quot;font-size: 14px;&quot;&gt;&lt;b&gt;网表优化&lt;/b&gt;" style="html=1;dropTarget=0;fontSize=14;fillColor=#ffcccc;strokeColor=#36393d;gradientColor=#FFFFFF;gradientDirection=east;verticalAlign=top;" vertex="1" parent="1">
          <mxGeometry x="1570" y="380" width="290.5" height="180" as="geometry" />
        </mxCell>
        <mxCell id="gF-SpmbbT1mS5ckHaSBA-67" value="" style="shape=module;jettyWidth=8;jettyHeight=4;fontSize=14;fillColor=#ffcccc;strokeColor=#36393d;gradientColor=#FFFFFF;gradientDirection=east;" vertex="1" parent="gF-SpmbbT1mS5ckHaSBA-66">
          <mxGeometry x="1" width="20" height="20" relative="1" as="geometry">
            <mxPoint x="-27" y="7" as="offset" />
          </mxGeometry>
        </mxCell>
        <mxCell id="gF-SpmbbT1mS5ckHaSBA-68" value="&lt;font style=&quot;font-size: 12px;&quot;&gt;«SubModule»&lt;/font&gt;&lt;br style=&quot;font-size: 14px;&quot;&gt;&lt;b&gt;FF转换&lt;/b&gt;" style="html=1;dropTarget=0;fontSize=14;fillColor=#ffcccc;strokeColor=#36393d;gradientColor=#FFFFFF;gradientDirection=east;verticalAlign=top;" vertex="1" parent="1">
          <mxGeometry x="1590.5" y="490" width="110" height="50" as="geometry" />
        </mxCell>
        <mxCell id="gF-SpmbbT1mS5ckHaSBA-69" value="" style="shape=module;jettyWidth=8;jettyHeight=4;fontSize=14;fillColor=#ffcccc;strokeColor=#36393d;gradientColor=#FFFFFF;gradientDirection=east;" vertex="1" parent="gF-SpmbbT1mS5ckHaSBA-68">
          <mxGeometry x="1" width="20" height="20" relative="1" as="geometry">
            <mxPoint x="-27" y="7" as="offset" />
          </mxGeometry>
        </mxCell>
        <mxCell id="gF-SpmbbT1mS5ckHaSBA-70" value="&lt;font style=&quot;font-size: 12px;&quot;&gt;«SubModule»&lt;/font&gt;&lt;br style=&quot;font-size: 14px;&quot;&gt;&lt;b&gt;MEM转换&lt;/b&gt;" style="html=1;dropTarget=0;fontSize=14;fillColor=#ffcccc;strokeColor=#36393d;gradientColor=#FFFFFF;gradientDirection=east;verticalAlign=top;" vertex="1" parent="1">
          <mxGeometry x="1725.5" y="490" width="110" height="50" as="geometry" />
        </mxCell>
        <mxCell id="gF-SpmbbT1mS5ckHaSBA-71" value="" style="shape=module;jettyWidth=8;jettyHeight=4;fontSize=14;fillColor=#ffcccc;strokeColor=#36393d;gradientColor=#FFFFFF;gradientDirection=east;" vertex="1" parent="gF-SpmbbT1mS5ckHaSBA-70">
          <mxGeometry x="1" width="20" height="20" relative="1" as="geometry">
            <mxPoint x="-27" y="7" as="offset" />
          </mxGeometry>
        </mxCell>
        <mxCell id="gF-SpmbbT1mS5ckHaSBA-72" value="&lt;font style=&quot;font-size: 12px;&quot;&gt;«SubModule»&lt;/font&gt;&lt;br style=&quot;font-size: 14px;&quot;&gt;&lt;b&gt;时钟边沿&lt;/b&gt;" style="html=1;dropTarget=0;fontSize=14;fillColor=#ffcccc;strokeColor=#36393d;gradientColor=#FFFFFF;gradientDirection=east;verticalAlign=top;" vertex="1" parent="1">
          <mxGeometry x="1590.5" y="429" width="110" height="50" as="geometry" />
        </mxCell>
        <mxCell id="gF-SpmbbT1mS5ckHaSBA-73" value="" style="shape=module;jettyWidth=8;jettyHeight=4;fontSize=14;fillColor=#ffcccc;strokeColor=#36393d;gradientColor=#FFFFFF;gradientDirection=east;" vertex="1" parent="gF-SpmbbT1mS5ckHaSBA-72">
          <mxGeometry x="1" width="20" height="20" relative="1" as="geometry">
            <mxPoint x="-27" y="7" as="offset" />
          </mxGeometry>
        </mxCell>
        <mxCell id="gF-SpmbbT1mS5ckHaSBA-74" value="&lt;font style=&quot;font-size: 12px;&quot;&gt;«SubModule»&lt;/font&gt;&lt;br style=&quot;font-size: 14px;&quot;&gt;&lt;b&gt;常量优化&lt;/b&gt;" style="html=1;dropTarget=0;fontSize=14;fillColor=#ffcccc;strokeColor=#36393d;gradientColor=#FFFFFF;gradientDirection=east;verticalAlign=top;" vertex="1" parent="1">
          <mxGeometry x="1725.5" y="429" width="110" height="50" as="geometry" />
        </mxCell>
        <mxCell id="gF-SpmbbT1mS5ckHaSBA-75" value="" style="shape=module;jettyWidth=8;jettyHeight=4;fontSize=14;fillColor=#ffcccc;strokeColor=#36393d;gradientColor=#FFFFFF;gradientDirection=east;" vertex="1" parent="gF-SpmbbT1mS5ckHaSBA-74">
          <mxGeometry x="1" width="20" height="20" relative="1" as="geometry">
            <mxPoint x="-27" y="7" as="offset" />
          </mxGeometry>
        </mxCell>
      </root>
    </mxGraphModel>
  </diagram>
</mxfile>
